<svg width="80" height="80" viewBox="0 0 80 80" fill="none" xmlns="http://www.w3.org/2000/svg">
<g clip-path="url(#clip0_105_1443)">
<path fill-rule="evenodd" clip-rule="evenodd" d="M80 48.726C79.6061 49.4218 79.1735 50.0989 78.8252 50.8167C77.5664 53.41 75.3262 54.5366 72.6315 54.8071C70.8249 54.9884 68.9899 54.8849 67.1673 54.9111C66.9365 54.9145 66.7061 54.9326 66.3646 54.9492C67.1815 56.5169 67.382 58.131 66.6481 59.6476C66.2023 60.5683 65.474 61.462 64.6517 62.0682C62.8316 63.4096 60.2635 63.2291 58.5363 61.8502C56.493 60.2189 56.0314 58.0374 57.1161 54.9638C56.8792 54.945 56.6594 54.9129 56.4395 54.9124C54.5379 54.9083 52.6364 54.9251 50.7354 54.8999C50.2419 54.8932 49.9328 55.0405 49.6398 55.4531C47.3664 58.6559 44.3047 60.5418 40.3382 60.6891C36.9292 60.8157 34.0484 59.5068 31.6665 57.0861C31.3204 56.7344 30.9371 56.3854 30.7058 55.9614C30.2355 55.0996 29.5868 54.8423 28.6148 54.8854C26.7201 54.9694 24.8192 54.9101 22.8372 54.9101C24.0519 57.8761 23.6537 60.4072 20.9114 62.1793C18.928 63.4611 16.5307 63.1805 14.745 61.6706C12.8884 60.1007 12.4641 57.8133 13.5575 54.9542C13.2375 54.9386 12.9449 54.921 12.6522 54.9105C10.5741 54.8354 8.47039 54.9388 6.4249 54.6411C4.05738 54.2967 2.16627 53.0322 1.10996 50.7523C0.858816 50.2099 0.548921 49.6953 0.275646 49.1631C-0.378081 47.8893 0.157562 47.0099 1.6019 47.0088C7.82708 47.0042 14.0523 47.0066 20.2775 47.0068C21.5016 47.007 22.7264 46.9865 23.9498 47.0192C24.7289 47.04 25.2764 47.6046 25.2743 48.2866C25.2721 48.9809 24.7423 49.484 23.9441 49.54C23.7366 49.5545 23.5276 49.5483 23.3193 49.5483C22.1992 49.5491 21.0793 49.5488 19.9592 49.5488C14.7759 49.5488 9.59254 49.5488 4.40919 49.5488C4.12363 49.5488 3.83798 49.5488 3.49423 49.5488C3.73235 50.7151 4.57032 51.3029 5.50188 51.672C6.35654 52.0107 7.29892 52.3014 8.20501 52.3087C14.8466 52.3616 21.4887 52.338 28.1306 52.3372C28.2588 52.3372 28.3868 52.3226 28.6432 52.3068C27.3349 48.3467 27.5702 44.5081 29.4632 40.6836C29.0846 40.6653 28.8158 40.6414 28.547 40.6412C25.2129 40.6386 21.8789 40.6401 18.5449 40.6382C18.259 40.638 17.9704 40.6403 17.6873 40.6056C17.0223 40.5241 16.6502 40.0945 16.596 39.4679C16.5409 38.8296 16.8803 38.3603 17.5055 38.1794C17.7981 38.0949 18.1227 38.101 18.433 38.1006C22.4701 38.0959 26.5076 38.1115 30.5444 38.076C30.9531 38.0723 31.4533 37.8684 31.7495 37.5872C32.8766 36.5178 34.0984 35.602 35.5419 35.0263C36.0509 34.8232 36.1683 34.5337 36.166 34.028C36.1481 30.121 36.1712 26.2139 36.1509 22.3069C36.1388 19.9965 37.1412 18.3257 39.1638 17.2352C39.7179 16.9365 40.2401 16.929 40.7953 17.2271C42.8174 18.3133 43.8332 19.9783 43.8218 22.2907C43.8029 26.0935 43.8434 29.8968 43.7956 33.699C43.7855 34.5032 44.0809 34.8159 44.7581 35.1996C45.9894 35.8974 47.0829 36.8353 48.2572 37.639C48.5728 37.855 48.9719 38.0752 49.3342 38.0779C53.3975 38.1088 57.4606 38.0961 61.5239 38.1004C61.8345 38.1007 62.1587 38.0923 62.4525 38.174C63.0796 38.3483 63.4255 38.8148 63.3789 39.452C63.333 40.0776 62.9662 40.5146 62.3018 40.6032C62.0194 40.6408 61.7303 40.6378 61.4445 40.638C58.1364 40.6403 54.8286 40.6395 51.5205 40.6395C51.2386 40.6395 50.9564 40.6395 50.5111 40.6395C52.3496 44.45 52.6865 48.285 51.3094 52.2931C51.647 52.3117 51.8931 52.3369 52.1388 52.3369C58.5726 52.339 65.006 52.3307 71.4396 52.3449C72.8096 52.3478 74.0882 52.0495 75.1937 51.2524C75.7345 50.8626 76.1447 50.2913 76.6139 49.8024C76.5664 49.7298 76.5189 49.6575 76.4715 49.5849C76.2004 49.5729 75.9294 49.5503 75.6582 49.5503C69.3809 49.5483 63.1037 49.5488 56.8263 49.5483C56.5659 49.5483 56.3047 49.5568 56.0453 49.5386C55.2487 49.4826 54.7285 48.9733 54.736 48.2715C54.7437 47.5765 55.2783 47.068 56.0698 47.0112C56.2513 46.998 56.4344 47.0068 56.6165 47.0068C63.7796 47.0067 70.9424 47.0158 78.1053 46.9938C78.8853 46.9914 79.5277 47.1419 80 47.7882C80 48.1009 80 48.4134 80 48.726ZM49.6089 47.5849C49.5794 44.9461 48.9258 42.7094 47.5191 40.7073C44.0365 35.7509 37.5123 35.2465 33.3471 39.614C29.1366 44.0289 29.4387 51.7251 33.9824 55.7986C37.6367 59.0745 42.9206 58.9176 46.3779 55.4228C48.5804 53.1961 49.5547 50.469 49.6089 47.5849ZM41.1667 34.0866C41.2015 33.9942 41.2352 33.9471 41.2354 33.8999C41.2383 29.8461 41.2653 25.792 41.2067 21.739C41.1991 21.2038 40.8019 20.646 40.4987 20.1515C40.1895 19.6472 39.7118 19.6982 39.4568 20.1784C39.1397 20.7754 38.7656 21.4424 38.7547 22.0849C38.6895 25.904 38.7217 29.7247 38.7243 33.5451C38.7243 33.7207 38.7544 33.8962 38.7718 34.0866C39.5844 34.0866 40.3571 34.0866 41.1667 34.0866ZM20.9358 57.6806C20.9426 56.1263 19.7269 54.9124 18.1756 54.9244C16.668 54.9362 15.4551 56.1476 15.4478 57.6486C15.4404 59.1676 16.7141 60.443 18.2211 60.4256C19.716 60.4085 20.9292 59.1816 20.9358 57.6806ZM59.0381 57.6281C59.0243 59.1692 60.2564 60.4279 61.7774 60.4266C63.2575 60.4256 64.5072 59.1863 64.5257 57.7011C64.5449 56.1676 63.3111 54.9235 61.7722 54.9248C60.2516 54.9258 59.0518 56.1121 59.0381 57.6281Z" fill="url(#paint0_linear_105_1443)"/>
<path fill-rule="evenodd" clip-rule="evenodd" d="M39.9649 45.1159C38.3776 45.1156 36.7902 45.121 35.2031 45.1128C34.6193 45.1097 34.0577 44.9266 33.8968 44.3312C33.7946 43.9535 33.829 43.4056 34.0446 43.1125C34.2648 42.8132 34.7796 42.5838 35.1686 42.5786C38.3687 42.537 41.5697 42.5422 44.7702 42.5624C45.682 42.5682 46.2372 43.1084 46.2233 43.8532C46.2095 44.5954 45.6389 45.1003 44.7267 45.111C43.1398 45.1293 41.5523 45.1161 39.9649 45.1159Z" fill="url(#paint1_linear_105_1443)"/>
</g>
<defs>
<linearGradient id="paint0_linear_105_1443" x1="0.93753" y1="40.0398" x2="80" y2="40.0398" gradientUnits="userSpaceOnUse">
<stop stop-color="#F97900"/>
<stop offset="1" stop-color="#FA9800"/>
</linearGradient>
<linearGradient id="paint1_linear_105_1443" x1="33.9867" y1="43.8361" x2="46.2236" y2="43.8361" gradientUnits="userSpaceOnUse">
<stop stop-color="#F97900"/>
<stop offset="1" stop-color="#FA9800"/>
</linearGradient>
<clipPath id="clip0_105_1443">
<rect width="80" height="80" fill="white"/>
</clipPath>
</defs>
</svg>
