<svg width="20" height="20" viewBox="0 0 20 20" fill="none" xmlns="http://www.w3.org/2000/svg">
<g clip-path="url(#clip0_106_207)">
<path fill-rule="evenodd" clip-rule="evenodd" d="M10.5853 19.9998C10.2207 19.9998 9.85608 19.9998 9.49144 19.9998C9.20762 19.9681 8.92283 19.9429 8.64004 19.9036C7.20954 19.7048 5.88117 19.2242 4.66423 18.4443C4.54977 18.3709 4.45099 18.3566 4.32078 18.3997C3.65477 18.6202 2.98576 18.8317 2.31755 19.0455C1.77568 19.2189 1.23342 19.3911 0.663394 19.5727C0.689069 19.4894 0.704491 19.4351 0.722395 19.3816C1.08551 18.2977 1.44273 17.2117 1.81775 16.1319C1.88784 15.9301 1.863 15.7887 1.74467 15.6177C0.757795 14.1918 0.19381 12.6076 0.0425241 10.8838C-0.145037 8.74663 0.282779 6.73031 1.40916 4.90241C3.27899 1.86805 6.01819 0.222317 9.57961 0.0164053C11.551 -0.0976084 13.4068 0.377205 15.0955 1.40664C17.6919 2.98937 19.2837 5.28343 19.8441 8.27914C19.9143 8.65408 19.9489 9.03567 19.9999 9.41421C19.9999 9.80482 19.9999 10.1955 19.9999 10.586C19.984 10.7265 19.9678 10.8671 19.9521 11.0076C19.7132 13.1523 18.8968 15.0461 17.4539 16.6531C15.9121 18.3701 13.9996 19.4415 11.7221 19.8446C11.3458 19.9112 10.9644 19.9488 10.5853 19.9998ZM13.2328 15.6348C13.5541 15.5728 13.8311 15.5515 14.0857 15.4648C15.5021 14.9823 15.9837 14.298 16.0257 12.9956C16.0323 12.7896 15.9603 12.6486 15.771 12.5587C15.0257 12.2045 14.2856 11.8394 13.5376 11.4912C13.1555 11.3132 12.9315 11.3859 12.6781 11.7264C12.4839 11.9872 12.2942 12.2516 12.0938 12.5075C11.789 12.8968 11.5741 12.9477 11.1111 12.7587C9.4647 12.0863 8.24064 10.9331 7.32221 9.43203C7.13806 9.13105 7.14805 9.00434 7.38174 8.73357C7.56879 8.51687 7.76239 8.30581 7.94886 8.08861C8.17877 7.82079 8.27568 7.53152 8.086 7.19556C8.03528 7.1057 8.00556 7.00412 7.96493 6.90843C7.68054 6.23886 7.40157 5.56684 7.10537 4.90255C7.05752 4.79521 6.94552 4.66686 6.84123 4.64259C6.30858 4.51877 5.77128 4.51055 5.31325 4.86219C4.89329 5.1846 4.5988 5.61601 4.41327 6.11376C4.0472 7.09593 4.16449 8.0526 4.56944 8.99588C4.86737 9.68981 5.30227 10.2977 5.74715 10.8988C6.49787 11.913 7.35559 12.8249 8.35323 13.6033C9.42151 14.4367 10.6404 14.961 11.9245 15.3451C12.3635 15.4764 12.821 15.5454 13.2328 15.6348Z" fill="black"/>
</g>
<defs>
<clipPath id="clip0_106_207">
<rect width="20" height="20" fill="black"/>
</clipPath>
</defs>
</svg>
