<svg width="70" height="70" viewBox="0 0 70 70" fill="none" xmlns="http://www.w3.org/2000/svg">
<path d="M57.3149 15.4673C57.3128 15.4319 57.3093 15.3972 57.3045 15.3624C57.2989 15.3284 57.2927 15.295 57.2843 15.2624C57.276 15.2297 57.2663 15.1971 57.2544 15.1658C57.2426 15.1338 57.2301 15.1026 57.2148 15.072C57.2003 15.0421 57.185 15.0136 57.1676 14.9859C57.1502 14.9567 57.1315 14.9289 57.1113 14.9018C57.0912 14.8754 57.0703 14.8497 57.0481 14.8254C57.0259 14.801 57.0029 14.7774 56.9786 14.7552C56.9536 14.7323 56.9279 14.7107 56.9001 14.6906C56.8737 14.6711 56.8473 14.6524 56.8188 14.6357C56.7896 14.6176 56.7598 14.6016 56.7292 14.587C56.6986 14.5725 56.668 14.5593 56.6361 14.5474C56.6041 14.5356 56.5722 14.5259 56.5388 14.5176C56.5048 14.5085 56.47 14.5016 56.4346 14.496C56.4165 14.4932 56.3999 14.487 56.3818 14.4856C48.1027 13.6574 41.628 11.9739 34.9399 6.15161C34.5057 5.77364 33.8463 5.8195 33.4697 6.25305C33.4454 6.28084 33.4274 6.31211 33.4065 6.34198C26.681 12.1449 21.0643 13.6894 13.0978 14.4849C12.5649 14.5384 12.1592 14.9865 12.1592 15.5222V39.9309C12.1592 40.0233 12.1717 40.115 12.196 40.2039C16.4224 55.7908 33.4677 63.1959 34.1909 63.5037C34.3216 63.5593 34.4605 63.5871 34.5988 63.5871C34.7356 63.5871 34.8739 63.56 35.0024 63.5058C35.7348 63.1987 52.9752 55.7943 57.2016 40.2046C57.2162 40.1497 57.2274 40.0941 57.2329 40.0372L57.3149 39.2305C57.3184 39.1958 57.3205 39.1604 57.3205 39.1249V15.5229C57.3205 15.5028 57.3163 15.4854 57.3149 15.4673ZM55.168 39.7384C51.5204 53.0082 37.2063 60.1895 34.6009 61.3992C32.0183 60.1861 17.912 53.0207 14.2429 39.7891V16.4595C21.7945 15.6237 27.6516 13.893 34.2896 8.32074C40.8679 13.7769 47.485 15.598 55.2354 16.456V39.0707L55.168 39.7384Z" fill="#343434"/>
<path d="M44.4672 28.375H43.4667C42.9164 23.7595 38.9513 20.166 34.1503 20.166C29.3493 20.166 25.3841 23.7595 24.8345 28.375H23.6242C23.0489 28.375 22.582 28.8412 22.582 29.4171V44.7025C22.582 45.2785 23.0489 45.7447 23.6242 45.7447H44.4679C45.0432 45.7447 45.5101 45.2785 45.5101 44.7025V29.4171C45.5094 28.8412 45.0425 28.375 44.4672 28.375ZM34.1496 22.2504C37.7986 22.2504 40.8223 24.9128 41.3594 28.375H26.9397C27.4775 24.9128 30.5005 22.2504 34.1496 22.2504ZM43.425 30.4593V43.6603H24.6657V30.4593H43.425Z" fill="#343434"/>
</svg>
