<svg width="70" height="70" viewBox="0 0 70 70" fill="none" xmlns="http://www.w3.org/2000/svg">
<path d="M60.5835 11.3677H9.1713C8.59304 11.3677 8.125 11.8357 8.125 12.414V57.3377C8.125 57.9153 8.59304 58.384 9.1713 58.384H60.5835C61.1611 58.384 61.6298 57.9153 61.6298 57.3377V12.414C61.6298 11.8357 61.1611 11.3677 60.5835 11.3677ZM59.5372 13.4603V23.6184H10.2176V13.4603H59.5372ZM10.2176 56.2914V25.711H59.5372V56.2914H10.2176Z" fill="#343434"/>
<path d="M14.4584 19.3079H18.3185C18.8968 19.3079 19.3648 18.8399 19.3648 18.2616C19.3648 17.6834 18.8968 17.2153 18.3185 17.2153H14.4584C13.8802 17.2153 13.4121 17.6834 13.4121 18.2616C13.4121 18.8399 13.8802 19.3079 14.4584 19.3079Z" fill="#343434"/>
<path d="M22.7318 19.3079H26.5927C27.1709 19.3079 27.639 18.8399 27.639 18.2616C27.639 17.6834 27.1709 17.2153 26.5927 17.2153H22.7318C22.1536 17.2153 21.6855 17.6834 21.6855 18.2616C21.6855 18.8399 22.1536 19.3079 22.7318 19.3079Z" fill="#343434"/>
<path d="M43.6458 40.0725L30.1541 30.8191C29.8333 30.5986 29.4175 30.5749 29.0743 30.7563C28.7312 30.9369 28.5156 31.2941 28.5156 31.6819V49.1292C28.5156 49.5073 28.7193 49.8561 29.0492 50.0416C29.209 50.1309 29.3854 50.1755 29.5619 50.1755C29.7503 50.1755 29.9386 50.1246 30.1053 50.0235L43.5962 41.8303C43.9004 41.6454 44.0894 41.3204 44.0992 40.9653C44.1096 40.6096 43.9387 40.2734 43.6458 40.0725ZM30.6089 47.2696V33.6685L41.1263 40.8823L30.6089 47.2696Z" fill="#343434"/>
</svg>
