<svg width="70" height="70" viewBox="0 0 70 70" fill="none" xmlns="http://www.w3.org/2000/svg">
<path d="M63.1238 13.0755C63.1224 12.4986 62.6543 12.0312 62.0775 12.0312C62.0768 12.0312 62.0761 12.0312 62.0754 12.0312L7.59207 12.1456C7.31445 12.1463 7.04869 12.2573 6.85268 12.4533C6.65667 12.65 6.54716 12.9164 6.54785 13.194L6.63295 52.4242C6.63435 53.0018 7.1024 53.4684 7.67926 53.4684C7.67996 53.4684 7.68066 53.4684 7.68135 53.4684L22.7007 53.4371L21.9014 54.5643C21.6523 54.9165 21.644 55.3853 21.8811 55.7452C22.1183 56.1051 22.5529 56.2837 22.9735 56.193L27.654 55.1928L28.4736 59.5761C28.5552 60.012 28.9026 60.3489 29.3406 60.418C29.395 60.4264 29.4487 60.4306 29.5024 60.4306C29.8819 60.4306 30.2383 60.2234 30.4225 59.8816L33.9179 53.4133L36.496 53.4085L39.9125 59.9493C40.0946 60.298 40.4538 60.5115 40.8388 60.5115C40.8877 60.5115 40.9372 60.508 40.9867 60.501C41.4255 60.4382 41.7777 60.1069 41.8656 59.6723L42.7487 55.3009L47.4096 56.366C47.8296 56.4609 48.2662 56.2914 48.5083 55.9342C48.7503 55.5771 48.7489 55.1083 48.5048 54.754L47.5631 53.3847L62.164 53.3547C62.4416 53.354 62.7074 53.2438 62.9034 53.0471C63.0994 52.8504 63.2089 52.584 63.2089 52.3063L63.1238 13.0755ZM29.9865 56.2865L29.5129 53.7544C29.4606 53.4775 29.2995 53.232 29.0644 53.0757C28.83 52.9188 28.5426 52.863 28.2657 52.923L25.1603 53.5863L25.4309 53.2048C25.5872 53.0813 25.7064 52.916 25.772 52.7242L29.4069 47.6001C30.6066 48.6408 32.0373 49.3369 33.5809 49.6334L32.4977 51.6388C32.3644 51.7755 32.2696 51.9478 32.2263 52.141L29.9865 56.2865ZM42.2255 40.8395C42.213 42.6866 41.4806 44.4193 40.1629 45.7174C38.8578 47.003 37.1349 47.7082 35.3053 47.7082C35.2878 47.7082 35.2704 47.7082 35.2522 47.7082C33.4031 47.6956 31.6697 46.9639 30.3709 45.647C29.0728 44.3307 28.3655 42.5876 28.378 40.7405C28.4059 36.9389 31.5086 33.8635 35.3046 33.8635C35.3199 33.8635 35.3366 33.8635 35.352 33.8635C39.1696 33.8928 42.2534 37.0212 42.2255 40.8395C42.2255 40.8388 42.2255 40.8388 42.2255 40.8395ZM35.0493 51.3193L35.2292 50.9859L35.4029 51.3186L35.0493 51.3193ZM42.1669 53.0227C41.8921 52.9592 41.6033 53.0102 41.3669 53.1636C41.1297 53.3164 40.9644 53.5584 40.9086 53.8353L40.3987 56.3625L36.8963 49.6557C38.4449 49.3816 39.886 48.7077 41.1018 47.6824L45.2598 53.7286L42.1669 53.0227ZM46.1255 51.2963L42.5645 46.1178C43.6848 44.5993 44.3056 42.7773 44.3182 40.8542C44.3544 35.8828 40.3394 31.8092 35.3673 31.7715C35.3464 31.7715 35.3255 31.7715 35.3053 31.7715C30.3625 31.7715 26.3217 35.7761 26.2854 40.7265C26.2721 42.6496 26.8671 44.48 27.9658 46.0146L24.1865 51.3416L8.72278 51.3744L8.64256 14.2369L61.0333 14.1267L61.1121 51.2656L46.1255 51.2963Z" fill="#343434"/>
<path d="M44.9623 20.3744L24.973 20.2314C24.9702 20.2314 24.9681 20.2314 24.9653 20.2314C24.3905 20.2314 23.9232 20.6953 23.919 21.2701C23.9148 21.8483 24.38 22.3199 24.9576 22.3241L44.9469 22.4671C44.9497 22.4671 44.9518 22.4671 44.9546 22.4671C45.5287 22.4671 45.9967 22.0032 46.0009 21.4284C46.0051 20.8502 45.5398 20.3786 44.9623 20.3744Z" fill="#343434"/>
<path d="M44.9283 25.0959L24.9417 24.9536C24.9389 24.9536 24.9368 24.9536 24.934 24.9536C24.3593 24.9536 23.8919 25.4175 23.8877 25.9922C23.8835 26.5705 24.3488 27.042 24.9264 27.0462L44.9129 27.1885C44.9157 27.1885 44.9185 27.1885 44.9206 27.1885C45.4947 27.1885 45.9627 26.7247 45.9669 26.1499C45.9711 25.5716 45.5058 25.1001 44.9283 25.0959Z" fill="#343434"/>
</svg>
