<svg width="70" height="70" viewBox="0 0 70 70" fill="none" xmlns="http://www.w3.org/2000/svg">
<path d="M56.5212 13.8168C50.814 8.15409 43.2528 5.03955 35.2173 5.03955C35.1768 5.03955 35.1363 5.03955 35.0959 5.03955C18.4144 5.10512 4.89699 18.7289 4.96117 35.4106C4.99255 43.4917 8.16911 51.0761 13.9049 56.7674C19.6128 62.4307 27.1733 65.5452 35.2089 65.5446C35.2493 65.5446 35.2905 65.5446 35.331 65.5446C52.0117 65.4797 65.5298 51.8559 65.465 35.1742C65.4343 27.0938 62.2577 19.5087 56.5212 13.8168ZM35.3233 63.4519C27.8206 63.4798 20.7191 60.5808 15.3795 55.2823C10.0399 49.9837 7.08305 42.9239 7.05376 35.4023C6.99377 19.8749 19.5765 7.19287 35.1036 7.13218C35.1419 7.13218 35.1782 7.13218 35.2166 7.13218C42.6962 7.13218 49.735 10.0312 55.0474 15.3025C60.387 20.6004 63.3438 27.6602 63.3731 35.1825C63.4331 50.7099 50.8496 63.3912 35.3233 63.4519Z" fill="#343434"/>
<path d="M46.2596 27.4362C46.517 26.9835 46.4026 26.4109 45.9911 26.0914C45.5795 25.7719 44.9971 25.804 44.6218 26.166L35.7715 34.738C35.6146 34.724 35.4479 34.724 35.3028 34.717C32.5211 34.7282 30.2666 37.0001 30.2764 39.7818C30.2813 41.1294 30.8114 42.3941 31.7684 43.3434C32.7198 44.2879 33.9803 44.8068 35.3188 44.8068C35.3258 44.8068 35.3335 44.8068 35.3412 44.8068C36.6888 44.8019 37.9541 44.2718 38.9035 43.3155C39.8521 42.3585 40.3718 41.0897 40.3669 39.7427C40.3648 39.2231 40.2818 38.7111 40.1193 38.2131L46.2596 27.4362ZM38.0099 38.5542C38.1836 38.942 38.2729 39.3445 38.2743 39.7504C38.2778 40.5393 37.973 41.2815 37.4177 41.8416C36.8618 42.4017 36.1224 42.7114 35.3328 42.7142C34.5439 42.6989 33.8017 42.4136 33.2416 41.8577C32.6815 41.3024 32.3718 40.5623 32.369 39.7734C32.3627 38.1461 33.6824 36.8166 35.3091 36.8096C35.3112 36.8096 35.314 36.8096 35.3161 36.8096C35.5149 36.8096 35.7178 36.8306 35.9194 36.8724C36.257 36.9408 36.6086 36.8396 36.8583 36.5983L40.8112 32.7702L38.0546 37.6083C37.8899 37.8978 37.8732 38.2493 38.0099 38.5542Z" fill="#343434"/>
<path d="M35.4002 52.0381C35.396 52.0381 35.3918 52.0381 35.387 52.0381C33.5713 52.0451 32.1002 53.528 32.1065 55.3437C32.11 56.2233 32.4552 57.0491 33.0802 57.6686C33.7017 58.2852 34.5248 58.6235 35.3995 58.6235C35.4037 58.6235 35.4079 58.6235 35.4128 58.6235C37.2284 58.6165 38.6995 57.1335 38.6933 55.3179C38.687 53.5064 37.211 52.0381 35.4002 52.0381ZM35.4051 56.5309C35.4037 56.5309 35.4023 56.5309 35.4002 56.5309C35.0807 56.5309 34.7808 56.4074 34.5548 56.1828C34.3274 55.9575 34.2012 55.6562 34.1998 55.3353C34.1977 54.6734 34.7334 54.1328 35.3953 54.13C35.3967 54.13 35.3981 54.13 35.4002 54.13C36.0601 54.13 36.5979 54.6657 36.6007 55.3255C36.6041 55.9882 36.067 56.5281 35.4051 56.5309Z" fill="#343434"/>
<path d="M35.225 12.521C35.1957 12.521 35.165 12.521 35.1364 12.521C29.0888 12.544 23.4123 14.9212 19.1525 19.2138C14.8934 23.5064 12.5602 29.201 12.5832 35.2486C12.6076 41.3011 14.9876 46.9804 19.2857 51.2416C19.4824 51.4355 19.7468 51.545 20.0223 51.545C20.0342 51.545 20.0454 51.545 20.0572 51.5443C20.3453 51.5345 20.6166 51.4069 20.8071 51.1907L25.5475 45.819C25.9297 45.3858 25.8886 44.7253 25.4554 44.3423C25.0222 43.9615 24.361 44.0026 23.9787 44.4351L19.9916 48.9537C16.5765 45.1898 14.6967 40.3629 14.6765 35.2416C14.6555 29.7528 16.7725 24.5848 20.639 20.6891C24.5054 16.7934 29.6566 14.6359 35.1455 14.615C35.1727 14.615 35.1992 14.615 35.2257 14.615C46.5187 14.615 55.7296 23.7805 55.7729 35.084C55.7924 40.2227 53.9384 45.0803 50.5288 48.8763L46.502 44.8801C46.0911 44.4721 45.4292 44.4748 45.0225 44.8857C44.6152 45.2958 44.618 45.9585 45.0281 46.3652L49.816 51.1167C50.012 51.3113 50.277 51.4209 50.5532 51.4209C50.5546 51.4209 50.556 51.4209 50.5574 51.4209C50.8343 51.4195 51.1001 51.3086 51.2961 51.1118C55.5559 46.8192 57.8892 41.1246 57.8662 35.0763C57.8159 22.6191 47.669 12.521 35.225 12.521Z" fill="#343434"/>
</svg>
