<svg width="80" height="80" viewBox="0 0 80 80" fill="none" xmlns="http://www.w3.org/2000/svg">
<path d="M41.0018 38.6565V13.2436C49.3106 13.7299 55.8874 19.2209 55.8874 25.9162C55.8874 26.5761 56.4223 27.1102 57.0814 27.1102C57.7405 27.1102 58.2754 26.5761 58.2754 25.9162C58.2754 17.9138 50.6296 11.3482 41.0018 10.8428V6.57928C41.0018 5.91938 40.4676 5.38525 39.8077 5.38525C39.1478 5.38525 38.6137 5.91938 38.6137 6.57928V10.8428C28.9795 11.3482 21.3289 17.9138 21.3289 25.9162C21.3289 33.9098 28.9795 40.469 38.6137 40.9737V66.3946C30.2993 65.9122 23.7162 60.4181 23.7162 53.718C23.7162 53.0589 23.1821 52.524 22.5222 52.524C21.8623 52.524 21.3281 53.0589 21.3281 53.718C21.3281 61.7252 28.9795 68.2939 38.6137 68.7954V73.8199C38.6137 74.479 39.1478 75.0139 39.8077 75.0139C40.4676 75.0139 41.0018 74.479 41.0018 73.8199V68.7946C50.6304 68.2852 58.2754 61.7196 58.2754 53.718C58.2754 45.7244 50.6312 39.1652 41.0018 38.6565ZM23.717 25.9162C23.717 19.2209 30.2985 13.7299 38.6137 13.2436V38.5729C30.2985 38.0874 23.717 32.6028 23.717 25.9162ZM41.0018 66.3938V41.0565C49.3114 41.5461 55.8874 47.0314 55.8874 53.718C55.8874 60.4125 49.3114 65.9035 41.0018 66.3938Z" fill="#343434"/>
</svg>
