<svg width="181" height="25" viewBox="0 0 181 25" fill="none" xmlns="http://www.w3.org/2000/svg">
<path d="M18.917 2H2.29199V3.225H9.99199V23H11.217V3.225H18.917V2Z" fill="#F2F4F6"/>
<path d="M34.3429 12.5292C35.3637 11.3917 36.0054 9.875 36.0054 8.3C36.0054 6.60833 35.2762 4.91667 34.022 3.75C33.4387 3.19583 32.7095 2.72917 31.9512 2.4375C31.222 2.14583 30.4637 2 29.7054 2H21.3929V23H22.6179V14.6H29.7054C29.9679 14.6 30.2012 14.5708 30.4637 14.5417L34.547 23H36.0054L31.747 14.25C32.7387 13.9 33.6429 13.3167 34.3429 12.5292ZM22.6179 13.375V3.225H29.7054C30.9595 3.225 32.272 3.77917 33.147 4.65417C34.1095 5.61667 34.6637 6.92917 34.6929 8.3C34.722 9.49583 34.2554 10.6625 33.497 11.5667C32.5637 12.675 31.1345 13.375 29.7054 13.375H22.6179Z" fill="#F2F4F6"/>
<path d="M51.5753 23H52.8878L45.2461 2H43.9336L36.2919 23H37.6044L39.2669 18.4208H49.9128L51.5753 23ZM39.6753 17.2542L44.5753 3.77917L49.4753 17.2542H39.6753Z" fill="#F2F4F6"/>
<path d="M56.3754 2H55.2379V23H56.4629V4.275L68.4504 23H69.5879V2H68.3629V20.725L56.3754 2Z" fill="#F2F4F6"/>
<path d="M88.0143 7.25C87.3435 5.325 86.206 3.72083 84.5435 2.7C83.3476 1.94167 81.7435 1.5625 80.2268 1.5625C78.8851 1.5625 77.5143 1.76667 76.2893 2.46667C74.7143 3.3125 73.5185 5.03333 73.5185 6.75417C73.5185 7.92083 73.956 9.29167 74.8893 10.1958C76.0268 11.2458 77.3976 11.6833 78.681 12.1208L82.5018 13.2583C83.756 13.6083 84.8643 14.1333 85.681 14.9792C86.4101 15.7083 86.8185 16.6417 86.8185 17.6625C86.8185 18.9167 86.2935 20.2583 85.1851 21.0458C84.0768 21.8333 82.3268 22.2125 80.7518 22.2125C78.5935 22.2125 76.4935 21.5417 75.2101 19.7333C74.5101 18.8 74.1018 17.6333 73.8685 16.4375L72.6435 16.7875C72.9351 18.0708 73.4018 19.3542 74.2185 20.4625C75.6768 22.5042 78.0685 23.4375 80.7226 23.4375C82.5601 23.4375 84.5434 23.0583 85.9143 22.0375C87.2559 21.075 88.131 19.3833 88.131 17.7208C88.1601 16.3792 87.5185 15.0083 86.5851 14.1042C85.5351 13.0833 84.1643 12.4417 82.8518 12.0917L79.031 10.9542C77.806 10.575 76.581 10.0792 75.7935 9.29167C75.1518 8.65 74.831 7.74583 74.831 6.8125C74.831 5.47083 75.6768 4.15833 76.8726 3.51667C77.8643 2.99167 79.0601 2.7875 80.256 2.7875C81.5101 2.7875 82.9101 3.1375 83.9018 3.75C85.3018 4.59583 86.2643 5.99583 86.8185 7.57083L88.0143 7.25Z" fill="#F2F4F6"/>
<path d="M107.084 16.35C106.793 17.4292 106.326 18.4792 105.684 19.3833C104.255 21.2792 101.863 22.2417 99.4425 22.2125C97.0509 22.1833 94.6592 21.2792 93.2592 19.3833C91.8009 17.4583 91.3633 14.95 91.3633 12.5C91.3633 10.05 91.8009 7.54167 93.2592 5.64583C94.6592 3.75 97.0509 2.7875 99.4425 2.81667C101.863 2.84583 104.255 3.75 105.684 5.64583C106.413 6.6375 106.909 7.80417 107.172 9.02917L108.455 8.825C108.134 7.425 107.58 6.08333 106.676 4.8875C105.043 2.67083 102.33 1.5625 99.4425 1.5625C96.555 1.5625 93.93 2.64167 92.2383 4.8875C90.5467 7.10417 90.08 9.875 90.0217 12.5C89.9633 15.125 90.5467 17.925 92.2383 20.1417C94.0175 22.3875 96.5259 23.4375 99.4425 23.4375C102.359 23.4375 104.984 22.3875 106.676 20.1417C107.463 19.0917 108.018 17.925 108.309 16.7L107.084 16.35Z" fill="#F2F4F6"/>
<path d="M120.056 23.4375C123.09 23.4375 125.656 22.3292 127.29 20.1125C128.981 17.8958 129.506 15.125 129.477 12.5C129.448 9.875 128.981 7.10417 127.29 4.8875C125.598 2.67083 122.915 1.65 120.056 1.59167C117.227 1.53333 114.486 2.67083 112.852 4.8875C111.161 7.10417 110.606 9.875 110.636 12.5C110.665 15.125 111.161 17.8958 112.852 20.1125C114.486 22.3875 117.081 23.4375 120.056 23.4375ZM120.056 22.2125C117.665 22.2417 115.244 21.2792 113.844 19.3542C112.386 17.4875 111.919 14.95 111.948 12.5C111.977 10.0792 112.386 7.54167 113.844 5.675C115.244 3.75 117.665 2.84583 120.056 2.81667C122.477 2.7875 124.869 3.75 126.24 5.675C127.698 7.54167 128.194 10.0792 128.165 12.5C128.136 14.95 127.698 17.4875 126.24 19.3542C124.869 21.2792 122.477 22.1833 120.056 22.2125Z" fill="#F2F4F6"/>
<path d="M147.439 7.3375C145.805 4.1 142.51 2 138.776 2H132.826V23H138.776C142.48 23 145.805 20.8708 147.439 17.6333C148.285 16.0292 148.605 14.2208 148.635 12.4708C148.605 10.7208 148.285 8.94167 147.439 7.3375ZM146.301 17.05C144.843 19.9375 142.014 21.7167 138.689 21.7167H134.051V3.225H138.689C142.014 3.225 144.814 5.03333 146.301 7.92083C147.03 9.32083 147.322 10.8958 147.322 12.4708C147.322 14.075 147.03 15.65 146.301 17.05Z" fill="#F2F4F6"/>
<path d="M151.699 2V23H152.924V2H151.699Z" fill="#F2F4F6"/>
<path d="M178 2L166 12.5L178 23V21.1013L167.917 12.481L178 3.89874V2Z" fill="#F2F4F6"/>
<path d="M156 2L168 12.5L156 23V21.1013L166.084 12.481L156 3.89874V2Z" fill="#31FDF1"/>
</svg>
