<svg style="display: none;" aria-hidden="true" xmlns="http://www.w3.org/2000/svg" xmlns:xlink="http://www.w3.org/1999/xlink">
    <symbol viewBox="0 0 24 24" fill="none" id="svg-chevron">
        <path d="M6 9L12 15L18 9" stroke="#fff" stroke-opacity=".7" stroke-width="2" stroke-linecap="round" stroke-linejoin="round" />
    </symbol>
    <symbol viewBox="0 0 24 24" fill="none" id="svg-email">
        <path d="M4 4H20C21.1 4 22 4.9 22 6V18C22 19.1 21.1 20 20 20H4C2.9 20 2 19.1 2 18V6C2 4.9 2.9 4 4 4Z" stroke="#fff" stroke-width="2" stroke-linecap="round" stroke-linejoin="round" />
        <path d="M22 6L12 13L2 6" stroke="#fff" stroke-width="2" stroke-linecap="round" stroke-linejoin="round" />
    </symbol>
    <symbol viewBox="0 0 24 24" fill="none" id="svg-location">
        <path d="M21 10C21 17 12 23 12 23C12 23 3 17 3 10C3 7.61305 3.94821 5.32387 5.63604 3.63604C7.32387 1.94821 9.61305 1 12 1C14.3869 1 16.6761 1.94821 18.364 3.63604C20.0518 5.32387 21 7.61305 21 10Z" stroke="#fff" stroke-width="2" stroke-linecap="round" stroke-linejoin="round" />
        <path d="M12 13C13.6569 13 15 11.6569 15 10C15 8.34315 13.6569 7 12 7C10.3431 7 9 8.34315 9 10C9 11.6569 10.3431 13 12 13Z" stroke="#fff" stroke-width="2" stroke-linecap="round" stroke-linejoin="round" />
    </symbol>
    <symbol viewBox="0 0 24 24" fill="none" id="svg-phone">
        <path d="M22.0004 16.9201V19.9201C22.0016 20.1986 21.9445 20.4743 21.8329 20.7294C21.7214 20.9846 21.5577 21.2137 21.3525 21.402C21.1473 21.5902 20.905 21.7336 20.6412 21.8228C20.3773 21.912 20.0978 21.9452 19.8204 21.9201C16.7433 21.5857 13.7874 20.5342 11.1904 18.8501C8.77425 17.3148 6.72576 15.2663 5.19042 12.8501C3.5004 10.2413 2.44866 7.27109 2.12042 4.1801C2.09543 3.90356 2.1283 3.62486 2.21692 3.36172C2.30555 3.09859 2.44799 2.85679 2.63519 2.65172C2.82238 2.44665 3.05023 2.28281 3.30421 2.17062C3.5582 2.05843 3.83276 2.00036 4.11042 2.0001H7.11042C7.59573 1.99532 8.06621 2.16718 8.43418 2.48363C8.80215 2.80008 9.0425 3.23954 9.11042 3.7201C9.23704 4.68016 9.47187 5.62282 9.81042 6.5301C9.94497 6.88802 9.97408 7.27701 9.89433 7.65098C9.81457 8.02494 9.62928 8.36821 9.36042 8.6401L8.09042 9.9101C9.51398 12.4136 11.5869 14.4865 14.0904 15.9101L15.3604 14.6401C15.6323 14.3712 15.9756 14.1859 16.3495 14.1062C16.7235 14.0264 17.1125 14.0556 17.4704 14.1901C18.3777 14.5286 19.3204 14.7635 20.2804 14.8901C20.7662 14.9586 21.2098 15.2033 21.527 15.5776C21.8441 15.9519 22.0126 16.4297 22.0004 16.9201Z" stroke="#fff" stroke-width="2" stroke-linecap="round" stroke-linejoin="round" />
    </symbol>
    <symbol viewBox="0 0 16 16" fill="none" id="svg-question">
        <path d="M7.01861 10.4031L6.65861 7.48714L6.74861 7.39714C8.96861 7.31314 10.0786 6.62914 10.0786 5.34514C10.0786 4.82914 9.89261 4.41514 9.52061 4.10314C9.14861 3.79114 8.64461 3.63514 8.00861 3.63514C6.94061 3.63514 5.96261 4.10914 5.07461 5.05714L3.72461 3.61714C4.90061 2.28514 6.34661 1.61914 8.06261 1.61914C9.33461 1.61914 10.3546 1.95514 11.1226 2.62714C11.8906 3.28714 12.2746 4.18114 12.2746 5.30914C12.2746 6.37714 11.9446 7.20514 11.2846 7.79314C10.6246 8.36914 9.74861 8.75314 8.65661 8.94514L8.47661 10.4031H7.01861ZM6.49661 14.3811V11.9151H8.90861V14.3811H6.49661Z" fill="#fff" />
    </symbol>
    <symbol viewBox="0 0 20 20" fill="none" id="svg-quote">
        <path d="M0 17V10.4116C0 7.53867 0.716254 5.43923 2.14876 4.11326C3.58127 2.78729 5.66116 2.08287 8.38843 2L9.00826 5.02486C6.33609 5.35635 5 6.55801 5 8.62984V8.91989H8.05785V17H0ZM10.9504 17V10.4116C10.9504 7.53867 11.6667 5.43923 13.0992 4.11326C14.5592 2.78729 16.6391 2.08287 19.3388 2L20 5.02486C17.3003 5.35635 15.9504 6.58564 15.9504 8.71271V8.91989H19.0083V17H10.9504Z" fill="#559F11" />
    </symbol>
    <symbol viewBox="0 0 16 16" fill="none" id="svg-star">
        <path d="M7.35488 2.07142C7.59353 1.49764 8.40635 1.49764 8.645 2.07142L9.8144 4.88299C9.91501 5.12488 10.1425 5.29016 10.4036 5.31109L13.439 5.55444C14.0584 5.6041 14.3096 6.37714 13.8376 6.78141L11.525 8.7624C11.3261 8.93283 11.2392 9.20025 11.3 9.45508L12.0065 12.4171C12.1507 13.0215 11.4931 13.4993 10.9628 13.1754L8.3641 11.5881C8.14053 11.4516 7.85935 11.4516 7.63577 11.5881L5.0371 13.1754C4.50677 13.4993 3.84919 13.0215 3.99338 12.4171L4.69991 9.45508C4.7607 9.20025 4.67381 8.93283 4.47485 8.7624L2.16224 6.78141C1.69029 6.37713 1.94147 5.6041 2.56091 5.55444L5.59625 5.31109C5.85739 5.29016 6.08487 5.12488 6.18548 4.88299L7.35488 2.07142Z" fill="#fff" fill-opacity=".33" />
    </symbol>
    <symbol viewBox="0 0 32 32" fill="none" id="svg-telegram">
        <circle cx="16" cy="16" r="16" fill="#fff" />
        <path d="M22.9601 11.0922L20.8474 21.2757C20.6879 21.9942 20.2723 22.1731 19.6818 21.8348L16.4624 19.4102L14.9092 20.9373C14.7372 21.1131 14.5937 21.2598 14.2622 21.2598L14.4937 17.9091L20.4598 12.399C20.7194 12.1629 20.4033 12.0316 20.0568 12.2682L12.681 17.0152L9.50567 15.9992C8.8151 15.7789 8.8026 15.2933 9.64969 14.9545L22.0695 10.0639C22.6446 9.84359 23.1476 10.1947 22.9601 11.0927V11.0922Z" fill="#22272D" />
    </symbol>
    <symbol viewBox="0 0 32 32" fill="none" id="svg-vk">
        <circle cx="16" cy="16" r="16" fill="#fff" />
        <path d="M16.6252 21C11.842 21 9.11368 17.6216 9 12H11.396C11.4747 16.1261 13.2411 17.8739 14.6402 18.2342V12H16.8963V15.5586C18.278 15.4054 19.7295 13.7838 20.2192 12H22.4753C22.2908 12.9251 21.923 13.8011 21.3948 14.573C20.8667 15.345 20.1896 15.9964 19.406 16.4865C20.2807 16.9343 21.0534 17.5681 21.6729 18.3461C22.2924 19.1241 22.7447 20.0287 23 21H20.5166C20.2874 20.1563 19.8216 19.4011 19.1776 18.829C18.5336 18.2568 17.74 17.8932 16.8963 17.7838V21H16.6252V21Z" fill="#22272D" />
    </symbol>
    <symbol viewBox="0 0 32 32" fill="none" id="svg-whatsapp">
        <circle cx="16" cy="16" r="16" fill="#fff" />
        <path d="M20.9512 11.0417C19.6341 9.72917 17.878 9 16.0244 9C12.1707 9 9.04878 12.1111 9.04878 15.9514C9.04878 17.1667 9.39024 18.3819 9.97561 19.4028L9 23L12.7073 22.0278C13.7317 22.5625 14.8537 22.8542 16.0244 22.8542C19.878 22.8542 23 19.7431 23 15.9028C22.9512 14.1042 22.2683 12.3542 20.9512 11.0417ZM19.3902 18.4306C19.2439 18.8194 18.561 19.2083 18.2195 19.2569C17.9268 19.3056 17.5366 19.3056 17.1463 19.2083C16.9024 19.1111 16.561 19.0139 16.1707 18.8194C14.4146 18.0903 13.2927 16.3403 13.1951 16.1944C13.0976 16.0972 12.4634 15.2708 12.4634 14.3958C12.4634 13.5208 12.9024 13.1319 13.0488 12.9375C13.1951 12.7431 13.3902 12.7431 13.5366 12.7431C13.6341 12.7431 13.7805 12.7431 13.878 12.7431C13.9756 12.7431 14.122 12.6944 14.2683 13.0347C14.4146 13.375 14.7561 14.25 14.8049 14.2986C14.8537 14.3958 14.8537 14.4931 14.8049 14.5903C14.7561 14.6875 14.7073 14.7847 14.6098 14.8819C14.5122 14.9792 14.4146 15.125 14.3659 15.1736C14.2683 15.2708 14.1707 15.3681 14.2683 15.5139C14.3659 15.7083 14.7073 16.2431 15.2439 16.7292C15.9268 17.3125 16.4634 17.5069 16.6585 17.6042C16.8537 17.7014 16.9512 17.6528 17.0488 17.5556C17.1463 17.4583 17.4878 17.0694 17.5854 16.875C17.6829 16.6806 17.8293 16.7292 17.9756 16.7778C18.1219 16.8264 19 17.2639 19.1463 17.3611C19.3415 17.4583 19.439 17.5069 19.4878 17.5556C19.5366 17.7014 19.5366 18.0417 19.3902 18.4306Z" fill="#22272D" />
    </symbol>
    <symbol viewBox="0 0 24 24" fill="none" id="svg-work-time">
        <path d="M12 22C17.5228 22 22 17.5228 22 12C22 6.47715 17.5228 2 12 2C6.47715 2 2 6.47715 2 12C2 17.5228 6.47715 22 12 22Z" stroke="#fff" stroke-width="2" stroke-linecap="round" stroke-linejoin="round" />
        <path d="M12 6V12L16 14" stroke="#fff" stroke-width="2" stroke-linecap="round" stroke-linejoin="round" />
    </symbol>
    <symbol viewBox="0 0 65 65" fill="none" id="svg-yandex">
        <path d="M32.5 65C50.4493 65 65 50.4493 65 32.5C65 14.5507 50.4493 0 32.5 0C14.5507 0 0 14.5507 0 32.5C0 50.4493 14.5507 65 32.5 65Z" fill="#FC3F1D" />
        <path d="M37.5982 52.8125H44.6843V12.1875H34.3706C23.998 12.1875 18.5573 17.4972 18.5573 25.3409C18.5573 32.112 22.0846 35.9298 28.3327 40.0766L32.1291 42.5821L27.2561 38.4952L17.6006 52.8125H25.2828L35.5975 37.4217L32.0103 35.035C27.6756 32.112 25.5529 29.8452 25.5529 24.9234C25.5529 20.5989 28.6029 17.6759 34.4011 17.6759H37.5698V52.8125H37.6003H37.5982Z" fill="#fff" />
    </symbol>
</svg>