<svg xmlns="http://www.w3.org/2000/svg" xmlns:xlink="http://www.w3.org/1999/xlink"><symbol fill="none" id="why-us-1-sym" viewBox="0 0 70 70"><title>why-us-1</title><path d="M56.521 13.817C50.814 8.154 43.253 5.04 35.217 5.04h-.121C18.414 5.105 4.897 18.729 4.96 35.41c.032 8.082 3.208 15.666 8.944 21.357 5.708 5.664 13.268 8.778 21.304 8.778h.122c16.68-.065 30.199-13.69 30.134-30.37-.03-8.081-3.207-15.666-8.944-21.358ZM35.323 63.452c-7.502.028-14.604-2.871-19.944-8.17-5.34-5.298-8.296-12.358-8.325-19.88-.06-15.527 12.522-28.21 28.05-28.27h.113c7.48 0 14.518 2.9 19.83 8.17 5.34 5.298 8.297 12.358 8.326 19.88.06 15.528-12.523 28.21-28.05 28.27Z" fill="#343434"/><path d="M46.26 27.436a1.047 1.047 0 0 0-1.638-1.27l-8.85 8.572c-.157-.014-.324-.014-.47-.021a5.053 5.053 0 0 0-5.026 5.065 5.01 5.01 0 0 0 1.492 3.561 5.007 5.007 0 0 0 3.55 1.464h.023a5.013 5.013 0 0 0 3.563-1.492 5.016 5.016 0 0 0 1.215-5.102l6.14-10.777Zm-8.25 11.118a2.932 2.932 0 0 1-.592 3.287 2.93 2.93 0 0 1-2.085.873c-.79-.015-1.531-.3-2.091-.856a2.93 2.93 0 0 1-.873-2.085 2.957 2.957 0 0 1 2.94-2.963h.007c.199 0 .402.02.603.062.338.069.69-.032.94-.274l3.952-3.828-2.756 4.838c-.165.29-.182.641-.045.946ZM35.4 52.038h-.013a3.297 3.297 0 0 0-3.28 3.306 3.27 3.27 0 0 0 .973 2.325 3.271 3.271 0 0 0 2.32.955h.013a3.298 3.298 0 0 0 3.28-3.306 3.296 3.296 0 0 0-3.293-3.28Zm.005 4.493H35.4c-.32 0-.62-.124-.845-.348a1.202 1.202 0 0 1 .84-2.053h.005a1.201 1.201 0 0 1 .005 2.4Z" fill="#343434"/><path d="M35.225 12.521h-.089a22.492 22.492 0 0 0-15.984 6.693 22.496 22.496 0 0 0-6.569 16.035 22.5 22.5 0 0 0 6.703 15.993c.196.194.46.303.736.303h.035c.288-.01.56-.138.75-.354l4.74-5.372a1.046 1.046 0 1 0-1.568-1.384l-3.987 4.519a20.404 20.404 0 0 1-5.316-13.712 20.41 20.41 0 0 1 5.963-14.553 20.414 20.414 0 0 1 14.506-6.074h.08c11.294 0 20.505 9.165 20.548 20.469a20.398 20.398 0 0 1-5.244 13.792l-4.027-3.996a1.046 1.046 0 1 0-1.474 1.485l4.788 4.752c.196.194.461.304.737.304h.004a1.05 1.05 0 0 0 .74-.31 22.494 22.494 0 0 0 6.57-16.035c-.051-12.457-10.198-22.555-22.642-22.555Z" fill="#343434"/></symbol><use fill="none" xlink:href="#why-us-1-sym" width="70" height="70"/><view id="why-us-1" viewBox="0 0 70 70"/><symbol fill="none" id="why-us-2-sym" viewBox="0 0 70 70"><title>why-us-2</title><path d="M63.124 13.075a1.047 1.047 0 0 0-1.047-1.044h-.002l-54.483.115a1.05 1.05 0 0 0-1.044 1.048l.085 39.23c.001.578.47 1.044 1.046 1.044h.002l15.02-.03-.8 1.126a1.047 1.047 0 0 0 1.073 1.629l4.68-1 .82 4.383a1.048 1.048 0 0 0 1.948.306l3.496-6.469 2.578-.005 3.416 6.541a1.046 1.046 0 0 0 1.954-.277l.883-4.371 4.66 1.065a1.047 1.047 0 0 0 1.096-1.612l-.942-1.37 14.601-.03a1.047 1.047 0 0 0 1.045-1.048l-.085-39.23ZM29.986 56.288l-.473-2.533a1.048 1.048 0 0 0-1.247-.831l-3.106.663.27-.381c.157-.124.276-.289.342-.48l3.635-5.125a8.92 8.92 0 0 0 4.174 2.033l-1.083 2.006a1.044 1.044 0 0 0-.272.502l-2.24 4.145Zm12.24-15.447a6.868 6.868 0 0 1-2.063 4.877 6.877 6.877 0 0 1-4.858 1.991h-.053a6.876 6.876 0 0 1-4.881-2.061 6.876 6.876 0 0 1-1.993-4.907 6.937 6.937 0 0 1 6.927-6.877h.047a6.934 6.934 0 0 1 6.873 6.977c0-.001 0-.001 0 0Zm-7.177 10.48.18-.334.174.333h-.354Zm7.118 1.703a1.044 1.044 0 0 0-1.258.813l-.51 2.526-3.503-6.706a8.911 8.911 0 0 0 4.206-1.974l4.158 6.047-3.093-.706Zm3.959-1.727-3.561-5.178a8.925 8.925 0 0 0 1.753-5.264c.036-4.971-3.979-9.045-8.95-9.082h-.063c-4.942 0-8.983 4.004-9.02 8.955a8.937 8.937 0 0 0 1.68 5.288l-3.779 5.327-15.463.032-.08-37.137 52.39-.11.08 37.139-14.987.03Z" fill="#343434"/><path d="m44.962 20.374-19.989-.143h-.008a1.046 1.046 0 0 0-.007 2.093l19.989.143h.008a1.047 1.047 0 0 0 .007-2.093Zm-.034 4.722-19.986-.142h-.008a1.046 1.046 0 0 0-.008 2.092l19.987.143h.008a1.047 1.047 0 0 0 .007-2.093Z" fill="#343434"/></symbol><use fill="none" xlink:href="#why-us-2-sym" y="70" width="70" height="70"/><view id="why-us-2" viewBox="0 70 70 70"/><symbol fill="none" id="why-us-3-sym" viewBox="0 0 80 80"><title>why-us-3</title><path d="M41.002 38.657V13.244c8.309.486 14.885 5.977 14.885 12.672a1.194 1.194 0 1 0 2.388 0c0-8.002-7.645-14.568-17.273-15.073V6.579a1.194 1.194 0 1 0-2.388 0v4.264c-9.634.505-17.285 7.07-17.285 15.073 0 7.994 7.65 14.553 17.285 15.058v25.42c-8.315-.482-14.898-5.976-14.898-12.676a1.194 1.194 0 1 0-2.388 0c0 8.007 7.652 14.576 17.286 15.077v5.025a1.194 1.194 0 1 0 2.388 0v-5.025c9.628-.51 17.273-7.075 17.273-15.077 0-7.994-7.644-14.553-17.273-15.062Zm-17.285-12.74c0-6.696 6.582-12.187 14.897-12.673v25.329c-8.315-.486-14.897-5.97-14.897-12.657Zm17.285 40.477V41.056c8.31.49 14.885 5.975 14.885 12.662 0 6.694-6.576 12.185-14.885 12.676Z" fill="#343434"/></symbol><use fill="none" xlink:href="#why-us-3-sym" y="140" width="80" height="80"/><view id="why-us-3" viewBox="0 140 80 80"/><symbol fill="none" id="why-us-4-sym" viewBox="0 0 70 70"><title>why-us-4</title><path d="M57.315 15.467a1.35 1.35 0 0 0-.03-.205.885.885 0 0 0-.07-.19.893.893 0 0 0-.104-.17 1.109 1.109 0 0 0-.21-.211.918.918 0 0 0-.172-.104 1.177 1.177 0 0 0-.19-.07 1.018 1.018 0 0 0-.104-.021c-.019-.003-.035-.009-.053-.01-8.28-.829-14.754-2.512-21.442-8.334a1.042 1.042 0 0 0-1.47.101c-.025.028-.043.06-.063.089-6.726 5.803-12.343 7.347-20.31 8.143a1.042 1.042 0 0 0-.938 1.037v24.409c0 .092.013.184.037.273 4.226 15.587 21.272 22.992 21.995 23.3a1.042 1.042 0 0 0 .811.002c.733-.307 17.973-7.712 22.2-23.301a1.04 1.04 0 0 0 .03-.168l.083-.806c.003-.035.006-.07.006-.106V15.523c0-.02-.005-.038-.006-.056Zm-2.147 24.271C51.52 53.008 37.206 60.19 34.601 61.4c-2.583-1.213-16.689-8.378-20.358-21.61V16.46c7.551-.835 13.409-2.566 20.047-8.138 6.578 5.456 13.195 7.277 20.945 8.135v22.615l-.067.667Z" fill="#343434"/><path d="M44.467 28.375h-1c-.55-4.616-4.516-8.209-9.317-8.209-4.8 0-8.766 3.593-9.316 8.209h-1.21c-.575 0-1.042.466-1.042 1.042v15.285c0 .577.467 1.043 1.042 1.043h20.844c.575 0 1.042-.466 1.042-1.042V29.416c0-.576-.468-1.042-1.043-1.042ZM34.15 22.25c3.649 0 6.672 2.663 7.21 6.125H26.94c.537-3.462 3.56-6.125 7.21-6.125Zm9.275 8.21v13.2h-18.76v-13.2h18.76Z" fill="#343434"/></symbol><use fill="none" xlink:href="#why-us-4-sym" y="220" width="70" height="70"/><view id="why-us-4" viewBox="0 220 70 70"/><symbol fill="none" id="why-us-5-sym" viewBox="0 0 70 70"><title>why-us-5</title><path d="M60.584 11.368H9.17c-.578 0-1.046.468-1.046 1.046v44.924c0 .577.468 1.046 1.046 1.046h51.413c.577 0 1.046-.469 1.046-1.046V12.414c0-.578-.469-1.046-1.047-1.046Zm-1.047 2.092v10.158h-49.32V13.46h49.32Zm-49.32 42.831v-30.58h49.32v30.58h-49.32Z" fill="#343434"/><path d="M14.458 19.308h3.86a1.046 1.046 0 1 0 0-2.093h-3.86a1.046 1.046 0 1 0 0 2.093Zm8.274 0h3.86a1.046 1.046 0 1 0 0-2.093h-3.86a1.046 1.046 0 1 0 0 2.093Zm20.914 20.764L30.154 30.82a1.044 1.044 0 0 0-1.638.863V49.13a1.046 1.046 0 0 0 1.59.895l13.49-8.194a1.045 1.045 0 0 0 .05-1.758ZM30.609 47.27V33.668l10.517 7.214L30.61 47.27Z" fill="#343434"/></symbol><use fill="none" xlink:href="#why-us-5-sym" y="290" width="70" height="70"/><view id="why-us-5" viewBox="0 290 70 70"/></svg>